<svg width="24" height="24" viewBox="0 0 24 24" fill="none" xmlns="http://www.w3.org/2000/svg">
<g clip-path="url(#clip0_1485_566)">
<path d="M12 6C14.62 6 16.88 7.86 17.39 10.43L17.69 11.93L19.22 12.04C19.9717 12.0906 20.6764 12.424 21.1922 12.9732C21.708 13.5224 21.9966 14.2466 22 15C22 16.65 20.65 18 19 18H6C3.79 18 2 16.21 2 14C2 11.95 3.53 10.24 5.56 10.03L6.63 9.92L7.13 8.97C7.58988 8.07478 8.28787 7.32382 9.14712 6.79979C10.0064 6.27577 10.9936 5.99902 12 6ZM12 4C9.11 4 6.6 5.64 5.35 8.04C3.88023 8.19883 2.52101 8.89521 1.53349 9.99532C0.545971 11.0954 -0.000171702 12.5217 4.04928e-08 14C4.04928e-08 17.31 2.69 20 6 20H19C21.76 20 24 17.76 24 15C24 12.36 21.95 10.22 19.35 10.04C19.0141 8.33772 18.0976 6.80486 16.7571 5.70325C15.4165 4.60163 13.7351 3.99961 12 4Z" fill="#FF802F"/>
</g>
<defs>
<clipPath id="clip0_1485_566">
<rect width="24" height="24" fill="white"/>
</clipPath>
</defs>
</svg>
