<svg width="29" height="29" viewBox="0 0 29 29" fill="none" xmlns="http://www.w3.org/2000/svg">
<g clip-path="url(#clip0_1485_554)" filter="url(#filter0_d_1485_554)">
<path d="M23.6206 8.57778C23.8586 7.87197 23.941 7.12427 23.8621 6.38462C23.7832 5.64498 23.5449 4.93043 23.1632 4.28869C22.0019 2.29846 19.668 1.27471 17.3886 1.75577C16.7575 1.06454 15.9527 0.548983 15.0552 0.260883C14.1576 -0.027217 13.1989 -0.0777192 12.2753 0.114448C11.3517 0.306616 10.4957 0.734688 9.79323 1.35567C9.0908 1.97666 8.56668 2.76869 8.27352 3.65223C7.53341 3.80166 6.83421 4.10491 6.22267 4.54171C5.61112 4.97852 5.10131 5.53881 4.72731 6.18516C3.55344 8.17224 3.81996 10.6787 5.38626 12.3834C5.14734 13.0889 5.06418 13.8364 5.14234 14.5761C5.2205 15.3158 5.45818 16.0305 5.83949 16.6724C7.0022 18.6634 9.33763 19.687 11.6183 19.2053C12.1197 19.7613 12.7358 20.2055 13.4255 20.5084C14.1151 20.8112 14.8625 20.9657 15.6176 20.9616C17.9539 20.9636 20.0238 19.4786 20.7375 17.2881C21.4775 17.1384 22.1766 16.8351 22.7881 16.3983C23.3996 15.9615 23.9094 15.4013 24.2836 14.7552C25.4433 12.7716 25.1757 10.2788 23.6206 8.57778ZM15.6176 19.5896C14.685 19.5911 13.7817 19.2692 13.066 18.6806L13.1919 18.6103L17.4305 16.2013C17.536 16.1404 17.6236 16.0536 17.6847 15.9492C17.7457 15.8449 17.7782 15.7267 17.7789 15.6063V9.72228L19.5709 10.7429C19.5887 10.7518 19.6012 10.7687 19.6044 10.7884V15.6642C19.5998 17.8302 17.8175 19.5851 15.6176 19.5896ZM7.04813 15.9865C6.58045 15.1914 6.41253 14.2593 6.57391 13.3543L6.69975 13.4287L10.9426 15.8377C11.0475 15.8984 11.1671 15.9304 11.2888 15.9304C11.4105 15.9304 11.53 15.8984 11.635 15.8377L16.8178 12.8957V14.9328C16.8173 14.9433 16.8144 14.9536 16.8094 14.9629C16.8043 14.9722 16.7971 14.9803 16.7884 14.9865L12.4953 17.4244C10.5875 18.5066 8.15014 17.8631 7.04813 15.9865ZM5.93177 6.89592C6.4027 6.09568 7.14602 5.48531 8.03013 5.17287V10.1313C8.02853 10.2511 8.05962 10.3691 8.12015 10.4731C8.18068 10.577 8.26843 10.663 8.37425 10.7222L13.5319 13.6519L11.7399 14.6725C11.7302 14.6775 11.7194 14.6802 11.7085 14.6802C11.6975 14.6802 11.6867 14.6775 11.677 14.6725L7.39225 12.2388C5.48823 11.1521 4.83526 8.7541 5.93177 6.87533V6.89592ZM20.6536 10.2636L15.4791 7.30502L17.2669 6.28854C17.2766 6.28347 17.2874 6.28082 17.2984 6.28082C17.3094 6.28082 17.3202 6.28347 17.3299 6.28854L21.6147 8.72648C22.2698 9.09868 22.8039 9.6467 23.1546 10.3066C23.5052 10.9664 23.658 11.7109 23.5951 12.453C23.5322 13.1952 23.2561 13.9044 22.7992 14.4979C22.3423 15.0914 21.7233 15.5446 21.0145 15.8047V10.8462C21.0108 10.7266 20.9756 10.61 20.9123 10.5079C20.849 10.4058 20.7599 10.3216 20.6536 10.2636ZM22.4371 7.62325L22.3112 7.54878L18.0768 5.11916C17.9712 5.05815 17.851 5.02598 17.7285 5.02598C17.6061 5.02598 17.4858 5.05815 17.3802 5.11916L12.2015 8.06126V6.02418C12.2004 6.01383 12.2022 6.00337 12.2066 5.99392C12.211 5.98446 12.218 5.97636 12.2267 5.97047L16.5114 3.53665C17.1681 3.16417 17.9189 2.98348 18.6761 3.01573C19.4333 3.04798 20.1654 3.29183 20.787 3.71875C21.4086 4.14568 21.8938 4.73804 22.186 5.42655C22.4782 6.11506 22.5653 6.87125 22.437 7.60669L22.4371 7.62325ZM11.2238 11.2346L9.4318 10.2181C9.42284 10.2128 9.41519 10.2056 9.40937 10.197C9.40356 10.1884 9.39973 10.1787 9.39817 10.1685V5.30517C9.39916 4.5591 9.61584 3.82872 10.0229 3.19943C10.4299 2.57014 11.0105 2.06794 11.6967 1.75156C12.383 1.43518 13.1465 1.31769 13.898 1.41282C14.6496 1.50795 15.3581 1.81177 15.9407 2.28877L15.8148 2.35904L11.5763 4.76798C11.4708 4.8289 11.3832 4.91579 11.3221 5.02011C11.2611 5.12443 11.2286 5.2426 11.228 5.36301L11.2238 11.2346ZM12.1973 9.16853L14.5055 7.85869L16.8178 9.16861V11.7883L14.5139 13.0982L12.2016 11.7883L12.1973 9.16853Z" fill="#FF802F"/>
</g>
<defs>
<filter id="filter0_d_1485_554" x="0" y="0" width="29" height="29" filterUnits="userSpaceOnUse" color-interpolation-filters="sRGB">
<feFlood flood-opacity="0" result="BackgroundImageFix"/>
<feColorMatrix in="SourceAlpha" type="matrix" values="0 0 0 0 0 0 0 0 0 0 0 0 0 0 0 0 0 0 127 0" result="hardAlpha"/>
<feOffset dy="4"/>
<feGaussianBlur stdDeviation="2"/>
<feComposite in2="hardAlpha" operator="out"/>
<feColorMatrix type="matrix" values="0 0 0 0 0 0 0 0 0 0 0 0 0 0 0 0 0 0 0.25 0"/>
<feBlend mode="normal" in2="BackgroundImageFix" result="effect1_dropShadow_1485_554"/>
<feBlend mode="normal" in="SourceGraphic" in2="effect1_dropShadow_1485_554" result="shape"/>
</filter>
<clipPath id="clip0_1485_554">
<rect width="21" height="21" fill="white" transform="translate(4)"/>
</clipPath>
</defs>
</svg>
