<svg width="24" height="24" viewBox="0 0 24 24" fill="none" xmlns="http://www.w3.org/2000/svg">
<path d="M11.9996 12.0001C11.1749 12.0001 10.4686 11.7064 9.88061 11.1191C9.29261 10.5317 8.99894 9.82539 8.99961 9.00005C8.99961 8.17539 9.29327 7.46905 9.88061 6.88105C10.4679 6.29306 11.1743 5.99939 11.9996 6.00005C12.8249 6.00005 13.5313 6.29372 14.1186 6.88105C14.7059 7.46839 14.9996 8.17472 14.9996 9.00005C14.9996 9.82539 14.7059 10.5317 14.1186 11.1191C13.5313 11.7064 12.8249 12.0001 11.9996 12.0001ZM4.99961 17.5851C4.99961 17.1251 5.11561 16.7267 5.34761 16.3901C5.57961 16.0547 5.90728 15.7874 6.33061 15.5881C7.14194 15.1934 8.04261 14.8684 9.03261 14.6131C10.0219 14.3584 11.0109 14.2311 11.9996 14.2311C12.9883 14.2311 13.9773 14.3584 14.9666 14.6131C15.9566 14.8684 16.8573 15.1934 17.6686 15.5881C18.0919 15.7874 18.4196 16.0547 18.6516 16.3901C18.8836 16.7261 18.9996 17.1244 18.9996 17.5851V18.1921C18.9996 18.4854 18.8999 18.7321 18.7006 18.9321C18.5006 19.1314 18.2539 19.2311 17.9606 19.2311H6.03861C5.74528 19.2311 5.49894 19.1311 5.29961 18.9311C5.09961 18.7331 4.99961 18.4871 4.99961 18.1931V17.5851ZM4.24161 4.26705C3.82361 4.68505 3.33428 5.01739 2.77361 5.26405C2.21294 5.51072 1.61328 5.63405 0.974609 5.63405C0.833276 5.63405 0.714609 5.58639 0.618609 5.49106C0.522609 5.39505 0.474609 5.27605 0.474609 5.13405C0.474609 4.99205 0.522609 4.87339 0.618609 4.77805C0.714609 4.68272 0.833276 4.63506 0.974609 4.63506C1.48861 4.63506 1.96194 4.53905 2.39461 4.34705C2.82594 4.15572 3.21028 3.89072 3.54761 3.55205C3.88428 3.21339 4.14428 2.82872 4.32761 2.39805C4.51161 1.96739 4.59061 1.49505 4.56461 0.981055C4.56461 0.835721 4.61461 0.711721 4.71461 0.609055C4.81328 0.507055 4.93294 0.456055 5.07361 0.456055C5.21361 0.456055 5.33494 0.507055 5.43761 0.609055C5.53894 0.711721 5.58961 0.835721 5.58961 0.981055C5.58961 1.62372 5.46961 2.22772 5.22961 2.79305C4.98961 3.35772 4.66028 3.84905 4.24161 4.26705ZM6.64961 6.65605C5.91628 7.38939 5.06628 7.96439 4.09961 8.38105C3.13294 8.79772 2.09128 9.00605 0.974609 9.00605C0.832609 9.00605 0.713943 8.95805 0.618609 8.86205C0.523276 8.76606 0.475276 8.64705 0.474609 8.50505C0.474609 8.36305 0.522609 8.24439 0.618609 8.14906C0.714609 8.05372 0.833276 8.00605 0.974609 8.00605C1.95728 8.00605 2.86761 7.82205 3.70561 7.45405C4.54361 7.08605 5.28061 6.58205 5.91661 5.94205C6.55261 5.30205 7.05461 4.55972 7.42261 3.71505C7.79061 2.87039 7.97461 1.95905 7.97461 0.981055C7.97461 0.835721 8.02428 0.711721 8.12361 0.609055C8.22294 0.507055 8.34294 0.456055 8.48361 0.456055C8.62361 0.456055 8.74461 0.507055 8.84661 0.609055C8.94861 0.711721 8.99961 0.835721 8.99961 0.981055C8.99961 2.08105 8.79128 3.11839 8.37461 4.09305C7.95794 5.06772 7.38294 5.92205 6.64961 6.65605ZM17.3386 6.65605C16.6066 5.92272 16.0329 5.07272 15.6176 4.10605C15.2016 3.13939 14.9853 2.09772 14.9686 0.981055C14.9686 0.835721 15.0183 0.711721 15.1176 0.609055C15.2169 0.507055 15.3369 0.456055 15.4776 0.456055C15.6176 0.456055 15.7386 0.507055 15.8406 0.609055C15.9426 0.711055 15.9936 0.835055 15.9936 0.981055C15.9936 1.95239 16.1783 2.86072 16.5476 3.70605C16.9163 4.55139 17.4209 5.29472 18.0616 5.93605C18.7029 6.57739 19.4459 7.08272 20.2906 7.45205C21.1353 7.82139 22.0383 8.00605 22.9996 8.00605C23.1416 8.00605 23.2603 8.05405 23.3556 8.15005C23.4516 8.24605 23.4996 8.36472 23.4996 8.50605C23.4996 8.64805 23.4516 8.76672 23.3556 8.86205C23.2596 8.95805 23.1409 9.00605 22.9996 9.00605C21.8856 9.00605 20.8463 8.79772 19.8816 8.38105C18.9176 7.96439 18.0699 7.38939 17.3386 6.65605ZM19.7126 4.26705C19.2953 3.84905 18.9663 3.36005 18.7256 2.80005C18.4856 2.24005 18.3569 1.63339 18.3396 0.980055C18.3396 0.835388 18.3896 0.712055 18.4896 0.610055C18.5883 0.507388 18.7079 0.456055 18.8486 0.456055C18.9886 0.456055 19.1099 0.507055 19.2126 0.609055C19.3139 0.711721 19.3646 0.835721 19.3646 0.981055C19.3646 1.48239 19.4573 1.95239 19.6426 2.39105C19.8279 2.82905 20.0893 3.21672 20.4266 3.55405C20.7639 3.89139 21.1516 4.15572 21.5896 4.34705C22.0283 4.53905 22.4983 4.63506 22.9996 4.63506C23.1416 4.63506 23.2603 4.68305 23.3556 4.77905C23.4509 4.87505 23.4989 4.99372 23.4996 5.13506C23.4996 5.27706 23.4516 5.39572 23.3556 5.49106C23.2603 5.58706 23.1416 5.63506 22.9996 5.63506C22.3469 5.63506 21.7403 5.51172 21.1796 5.26505C20.6196 5.01839 20.1306 4.68572 19.7126 4.26705Z" fill="#FF802F"/>
</svg>
