<svg width="27" height="27" viewBox="0 0 27 27" fill="none" xmlns="http://www.w3.org/2000/svg">
<rect width="27" height="27" rx="5" fill="#FFD6BC"/>
<path d="M20.2083 20.2085H6.79167V9.66683H20.2083M17.3333 2.9585V4.87516H9.66667V2.9585H7.75V4.87516H6.79167C5.72792 4.87516 4.875 5.72808 4.875 6.79183V20.2085C4.875 20.7168 5.07693 21.2043 5.43638 21.5638C5.79582 21.9232 6.28333 22.1252 6.79167 22.1252H20.2083C20.7167 22.1252 21.2042 21.9232 21.5636 21.5638C21.9231 21.2043 22.125 20.7168 22.125 20.2085V6.79183C22.125 6.2835 21.9231 5.79599 21.5636 5.43654C21.2042 5.0771 20.7167 4.87516 20.2083 4.87516H19.25V2.9585M18.2917 13.5002H13.5V18.2918H18.2917V13.5002Z" fill="#FF802F"/>
</svg>
