<svg width="28" height="26" viewBox="0 0 28 26" fill="none" xmlns="http://www.w3.org/2000/svg">
<rect width="28" height="26" rx="5" fill="#D9D9D9"/>
<path fill-rule="evenodd" clip-rule="evenodd" d="M13.25 5.5C12.2554 5.5 11.3016 5.89509 10.5983 6.59835C9.89509 7.30161 9.5 8.25544 9.5 9.25C9.5 10.2446 9.89509 11.1984 10.5983 11.9017C11.3016 12.6049 12.2554 13 13.25 13C14.2446 13 15.1984 12.6049 15.9017 11.9017C16.6049 11.1984 17 10.2446 17 9.25C17 8.25544 16.6049 7.30161 15.9017 6.59835C15.1984 5.89509 14.2446 5.5 13.25 5.5ZM13.25 13.75C11.4538 13.75 9.81875 14.2705 8.6165 15.004C8.0165 15.37 7.5035 15.802 7.133 16.2715C6.7685 16.732 6.5 17.2847 6.5 17.875C6.5 18.5087 6.80825 19.0083 7.25225 19.3645C7.67225 19.702 8.2265 19.9255 8.81525 20.0815C9.99875 20.3942 11.5782 20.5 13.25 20.5C13.4225 20.5 13.595 20.4985 13.7638 20.4963C13.8894 20.4945 14.0125 20.4613 14.1219 20.3996C14.2313 20.3378 14.3235 20.2496 14.3899 20.143C14.4564 20.0364 14.495 19.9148 14.5022 19.7894C14.5094 19.664 14.485 19.5388 14.4312 19.4252C14.1462 18.8235 13.9989 18.1658 14 17.5C14 16.561 14.2872 15.691 14.7778 14.9703C14.8507 14.8631 14.8946 14.739 14.9052 14.6098C14.9159 14.4807 14.8929 14.351 14.8385 14.2334C14.7841 14.1158 14.7002 14.0143 14.5949 13.9388C14.4896 13.8633 14.3666 13.8163 14.2378 13.8025C13.9153 13.768 13.5852 13.75 13.25 13.75ZM19.148 14.4977C19.082 14.3844 18.9874 14.2904 18.8737 14.2251C18.76 14.1598 18.6311 14.1254 18.5 14.1254C18.3689 14.1254 18.24 14.1598 18.1263 14.2251C18.0126 14.2904 17.918 14.3844 17.852 14.4977L17.1695 15.6693L15.845 15.9557C15.7168 15.9835 15.598 16.0444 15.5007 16.1324C15.4033 16.2203 15.3308 16.3323 15.2902 16.4571C15.2497 16.5819 15.2426 16.7151 15.2697 16.8435C15.2968 16.9719 15.357 17.0909 15.4445 17.1887L16.3475 18.1998L16.211 19.5483C16.1978 19.6787 16.219 19.8104 16.2726 19.9302C16.3261 20.0499 16.4102 20.1535 16.5163 20.2306C16.6224 20.3077 16.7468 20.3556 16.8772 20.3696C17.0077 20.3836 17.1395 20.3631 17.2595 20.3102L18.5 19.7628L19.7405 20.3102C19.8605 20.3631 19.9923 20.3836 20.1228 20.3696C20.2532 20.3556 20.3776 20.3077 20.4837 20.2306C20.5898 20.1535 20.6739 20.0499 20.7274 19.9302C20.781 19.8104 20.8022 19.6787 20.789 19.5483L20.6525 18.199L21.5555 17.1887C21.643 17.0909 21.7032 16.9719 21.7303 16.8435C21.7574 16.7151 21.7503 16.5819 21.7098 16.4571C21.6692 16.3323 21.5967 16.2203 21.4993 16.1324C21.402 16.0444 21.2832 15.9835 21.155 15.9557L19.8305 15.6693L19.148 14.4977Z" fill="#2F8E00"/>
</svg>
