<svg width="27" height="27" viewBox="0 0 27 27" fill="none" xmlns="http://www.w3.org/2000/svg">
<rect width="27" height="27" rx="5" fill="#C4C2FF"/>
<path d="M4.75 6.49388C4.7516 6.26408 4.84354 6.04414 5.00595 5.88157C5.16836 5.71899 5.38821 5.62683 5.618 5.625H21.382C21.8615 5.625 22.25 6.01438 22.25 6.49388V20.5061C22.2484 20.7359 22.1565 20.9559 21.9941 21.1184C21.8316 21.281 21.6118 21.3732 21.382 21.375H5.618C5.38771 21.3748 5.16693 21.2831 5.00418 21.1202C4.84142 20.9573 4.75 20.7364 4.75 20.5061V6.49388ZM8.25 16.125V17.875H18.75V16.125H8.25ZM8.25 9.125V14.375H13.5V9.125H8.25ZM15.25 9.125V10.875H18.75V9.125H15.25ZM15.25 12.625V14.375H18.75V12.625H15.25ZM10 10.875H11.75V12.625H10V10.875Z" fill="#6A65FF"/>
</svg>
