<svg width="26" height="26" viewBox="0 0 26 26" fill="none" xmlns="http://www.w3.org/2000/svg">
<rect width="26" height="26" rx="5" fill="#C6E4FF"/>
<path fill-rule="evenodd" clip-rule="evenodd" d="M13 5C11.9391 5 10.9217 5.42143 10.1716 6.17157C9.42143 6.92172 9 7.93913 9 9C9 10.0609 9.42143 11.0783 10.1716 11.8284C10.9217 12.5786 11.9391 13 13 13C14.0609 13 15.0783 12.5786 15.8284 11.8284C16.5786 11.0783 17 10.0609 17 9C17 7.93913 16.5786 6.92172 15.8284 6.17157C15.0783 5.42143 14.0609 5 13 5ZM11 14C9.93913 14 8.92172 14.4214 8.17157 15.1716C7.42143 15.9217 7 16.9391 7 18V19C7 20.1 7.9 21 9 21H17C17.5304 21 18.0391 20.7893 18.4142 20.4142C18.7893 20.0391 19 19.5304 19 19V18C19 16.9391 18.5786 15.9217 17.8284 15.1716C17.0783 14.4214 16.0609 14 15 14H11Z" fill="#0279FE"/>
</svg>
