<svg width="33" height="33" viewBox="0 0 33 33" fill="none" xmlns="http://www.w3.org/2000/svg">
<path d="M15.0608 15.2992C13.7917 15.2992 12.5511 14.9228 11.4959 14.2178C10.4407 13.5127 9.61826 12.5105 9.1326 11.338C8.64694 10.1655 8.51986 8.87537 8.76745 7.63066C9.01504 6.38595 9.62617 5.24261 10.5236 4.34522C11.4209 3.44783 12.5643 2.83671 13.809 2.58912C15.0537 2.34153 16.3439 2.4686 17.5164 2.95426C18.6889 3.43993 19.691 4.26237 20.3961 5.31758C21.1012 6.3728 21.4775 7.61339 21.4775 8.88249C21.4775 10.5843 20.8015 12.2164 19.5981 13.4198C18.3947 14.6231 16.7626 15.2992 15.0608 15.2992ZM15.0608 4.37249C14.1543 4.37249 13.2682 4.6413 12.5145 5.14492C11.7607 5.64854 11.1733 6.36436 10.8264 7.20186C10.4795 8.03935 10.3887 8.96091 10.5656 9.84999C10.7424 10.7391 11.1789 11.5557 11.8199 12.1967C12.4609 12.8377 13.2776 13.2742 14.1667 13.4511C15.0557 13.6279 15.9773 13.5372 16.8148 13.1903C17.6523 12.8434 18.3681 12.2559 18.8717 11.5022C19.3753 10.7485 19.6442 9.86232 19.6442 8.95582C19.6442 8.35393 19.5256 7.75793 19.2953 7.20186C19.0649 6.64578 18.7273 6.14052 18.3017 5.71492C17.8761 5.28932 17.3709 4.95171 16.8148 4.72138C16.2587 4.49104 15.6627 4.37249 15.0608 4.37249ZM20.1667 16.4083C15.206 15.2921 10.0164 15.8297 5.38999 17.9392C4.75373 18.2431 4.2169 18.7215 3.84202 19.3187C3.46713 19.9159 3.26963 20.6074 3.27249 21.3125V26.7667C3.27249 26.887 3.2962 27.0062 3.34227 27.1175C3.38834 27.2287 3.45586 27.3297 3.54098 27.4148C3.6261 27.5 3.72715 27.5675 3.83837 27.6135C3.94958 27.6596 4.06878 27.6833 4.18916 27.6833C4.30954 27.6833 4.42874 27.6596 4.53995 27.6135C4.65117 27.5675 4.75222 27.5 4.83734 27.4148C4.92246 27.3297 4.98998 27.2287 5.03605 27.1175C5.08211 27.0062 5.10583 26.887 5.10583 26.7667V21.3125C5.09784 20.9556 5.19421 20.6042 5.3831 20.3013C5.57199 19.9985 5.84518 19.7573 6.16916 19.6075C8.95607 18.3207 11.9912 17.6605 15.0608 17.6733C16.7808 17.6711 18.4948 17.8742 20.1667 18.2783V16.4083ZM20.295 25.1258H25.9233V26.4092H20.295V25.1258Z" fill="white" fill-opacity="0.4"/>
<path d="M30.4062 19.6812H25.667V21.5145H29.4895V29.187H16.5003V21.5145H22.2753V21.8995C22.2753 22.1426 22.3719 22.3758 22.5438 22.5477C22.7157 22.7196 22.9489 22.8162 23.192 22.8162C23.4351 22.8162 23.6683 22.7196 23.8402 22.5477C24.0121 22.3758 24.1087 22.1426 24.1087 21.8995V18.3337C24.1087 18.0905 24.0121 17.8574 23.8402 17.6855C23.6683 17.5136 23.4351 17.417 23.192 17.417C22.9489 17.417 22.7157 17.5136 22.5438 17.6855C22.3719 17.8574 22.2753 18.0905 22.2753 18.3337V19.6812H15.5837C15.3405 19.6812 15.1074 19.7777 14.9355 19.9496C14.7636 20.1216 14.667 20.3547 14.667 20.5978V30.1037C14.667 30.3468 14.7636 30.5799 14.9355 30.7518C15.1074 30.9237 15.3405 31.0203 15.5837 31.0203H30.4062C30.6493 31.0203 30.8824 30.9237 31.0543 30.7518C31.2262 30.5799 31.3228 30.3468 31.3228 30.1037V20.5978C31.3228 20.3547 31.2262 20.1216 31.0543 19.9496C30.8824 19.7777 30.6493 19.6812 30.4062 19.6812Z" fill="white" fill-opacity="0.4"/>
</svg>
