<svg width="21" height="21" viewBox="0 0 21 21" fill="none" xmlns="http://www.w3.org/2000/svg">
<path d="M18.375 7C17.1063 7 16.3975 8.26 16.6862 9.19625L13.58 12.3112C13.3175 12.2325 12.9325 12.2325 12.67 12.3112L10.4388 10.08C10.7362 9.14375 10.0275 7.875 8.75 7.875C7.48125 7.875 6.76375 9.135 7.06125 10.08L3.07125 14.0612C2.135 13.7725 0.875 14.4812 0.875 15.75C0.875 16.7125 1.6625 17.5 2.625 17.5C3.89375 17.5 4.6025 16.24 4.31375 15.3038L8.295 11.3138C8.5575 11.3925 8.9425 11.3925 9.205 11.3138L11.4362 13.545C11.1388 14.4812 11.8475 15.75 13.125 15.75C14.3938 15.75 15.1112 14.49 14.8138 13.545L17.9287 10.4388C18.865 10.7275 20.125 10.0187 20.125 8.75C20.125 7.7875 19.3375 7 18.375 7Z" fill="#FF802F"/>
<path d="M13.125 7.875L13.9475 6.06375L15.75 5.25L13.9475 4.43625L13.125 2.625L12.32 4.43625L10.5 5.25L12.32 6.06375L13.125 7.875ZM3.0625 9.625L3.5 7.875L5.25 7.4375L3.5 7L3.0625 5.25L2.625 7L0.875 7.4375L2.625 7.875L3.0625 9.625Z" fill="#FF802F"/>
</svg>
