<svg width="33" height="33" viewBox="0 0 33 33" fill="none" xmlns="http://www.w3.org/2000/svg">
<path d="M25.7811 16.5C26.6017 16.5 27.3886 16.8259 27.9688 17.4061C28.5489 17.9863 28.8749 18.7732 28.8749 19.5938V20.625C28.8749 24.2179 25.8801 27.9056 20.7115 28.7121L18.8099 26.8104C23.9517 26.7094 26.8124 23.5434 26.8124 20.625V19.5938C26.8124 19.3202 26.7037 19.0579 26.5103 18.8645C26.3169 18.6712 26.0546 18.5625 25.7811 18.5625H18.0344C17.7767 17.8345 17.4289 17.1416 16.999 16.5H25.7811ZM18.5624 3.09375C20.0667 3.09375 21.5093 3.69132 22.573 4.755C23.6367 5.81869 24.2343 7.26135 24.2343 8.76563C24.2343 10.2699 23.6367 11.7126 22.573 12.7762C21.5093 13.8399 20.0667 14.4375 18.5624 14.4375C17.0581 14.4375 15.6154 13.8399 14.5518 12.7762C13.4881 11.7126 12.8905 10.2699 12.8905 8.76563C12.8905 7.26135 13.4881 5.81869 14.5518 4.755C15.6154 3.69132 17.0581 3.09375 18.5624 3.09375ZM18.5624 5.15625C17.6051 5.15625 16.6871 5.53652 16.0102 6.21341C15.3333 6.8903 14.953 7.80836 14.953 8.76563C14.953 9.72289 15.3333 10.641 16.0102 11.3178C16.6871 11.9947 17.6051 12.375 18.5624 12.375C19.5197 12.375 20.4377 11.9947 21.1146 11.3178C21.7915 10.641 22.1718 9.72289 22.1718 8.76563C22.1718 7.80836 21.7915 6.8903 21.1146 6.21341C20.4377 5.53652 19.5197 5.15625 18.5624 5.15625ZM9.28114 28.875C10.9023 28.875 12.3996 28.3388 13.6041 27.4374L18.8635 32.6968C18.9593 32.7927 19.073 32.8688 19.1981 32.9207C19.3233 32.9727 19.4574 32.9994 19.5929 32.9995C19.7284 32.9996 19.8626 32.973 19.9878 32.9213C20.113 32.8695 20.2269 32.7936 20.3227 32.6978C20.4186 32.6021 20.4947 32.4884 20.5466 32.3633C20.5986 32.2381 20.6254 32.104 20.6255 31.9685C20.6256 31.8329 20.599 31.6988 20.5472 31.5735C20.4954 31.4483 20.4195 31.3345 20.3238 31.2386L15.0644 25.9793C16.0379 24.6774 16.5435 23.085 16.4993 21.4599C16.4551 19.8349 15.8637 18.2724 14.8208 17.0253C13.7779 15.7783 12.3447 14.9197 10.7531 14.5887C9.16151 14.2577 7.5048 14.4736 6.0512 15.2014C4.59761 15.9293 3.43223 17.1264 2.74377 18.5991C2.05532 20.0718 1.88408 21.7337 2.2578 23.3158C2.63152 24.8979 3.52831 26.3075 4.80296 27.3164C6.07762 28.3254 7.6555 28.8745 9.28114 28.875ZM9.28114 26.8125C7.91362 26.8125 6.6021 26.2693 5.63512 25.3023C4.66813 24.3353 4.12489 23.0238 4.12489 21.6563C4.12489 20.2887 4.66813 18.9772 5.63512 18.0102C6.6021 17.0432 7.91362 16.5 9.28114 16.5C10.6487 16.5 11.9602 17.0432 12.9272 18.0102C13.8941 18.9772 14.4374 20.2887 14.4374 21.6563C14.4374 23.0238 13.8941 24.3353 12.9272 25.3023C11.9602 26.2693 10.6487 26.8125 9.28114 26.8125Z" fill="#FF802F"/>
</svg>
