<svg width="33" height="33" viewBox="0 0 33 33" fill="none" xmlns="http://www.w3.org/2000/svg">
<path d="M23.375 20.625H26.125V23.375H23.375V20.625ZM26.125 15.125H23.375V17.875H26.125V15.125Z" fill="white" fill-opacity="0.4"/>
<path fill-rule="evenodd" clip-rule="evenodd" d="M17.875 9.625H31.625V28.875H1.375V4.125H17.875V9.625ZM11 6.875H15.125V9.625H11V6.875ZM15.125 26.125V23.375H11V26.125H15.125ZM15.125 20.625V17.875H11V20.625H15.125ZM15.125 15.125V12.375H11V15.125H15.125ZM28.875 26.125V12.375H17.875V15.125H20.625V17.875H17.875V20.625H20.625V23.375H17.875V26.125H28.875ZM4.125 26.125V23.375H8.25V26.125H4.125ZM4.125 20.625H8.25V17.875H4.125V20.625ZM8.25 15.125V12.375H4.125V15.125H8.25ZM4.125 9.625H8.25V6.875H4.125V9.625Z" fill="white" fill-opacity="0.4"/>
</svg>
