<svg width="55" height="55" viewBox="0 0 55 55" fill="none" xmlns="http://www.w3.org/2000/svg">
<circle cx="27.5" cy="27.5" r="27.5" fill="#DCEDFF"/>
<path d="M22 25.2727C21.7107 25.2727 21.4332 25.3877 21.2286 25.5922C21.024 25.7968 20.9091 26.0743 20.9091 26.3636C20.9091 26.653 21.024 26.9304 21.2286 27.135C21.4332 27.3396 21.7107 27.4545 22 27.4545C22.2893 27.4545 22.5668 27.3396 22.7714 27.135C22.976 26.9304 23.0909 26.653 23.0909 26.3636C23.0909 26.0743 22.976 25.7968 22.7714 25.5922C22.5668 25.3877 22.2893 25.2727 22 25.2727ZM20.9091 34C20.9091 33.7107 21.024 33.4332 21.2286 33.2286C21.4332 33.024 21.7107 32.9091 22 32.9091C22.2893 32.9091 22.5668 33.024 22.7714 33.2286C22.976 33.4332 23.0909 33.7107 23.0909 34C23.0909 34.2893 22.976 34.5668 22.7714 34.7714C22.5668 34.976 22.2893 35.0909 22 35.0909C21.7107 35.0909 21.4332 34.976 21.2286 34.7714C21.024 34.5668 20.9091 34.2893 20.9091 34ZM16 20.0909C16 19.0059 16.431 17.9654 17.1982 17.1982C17.9654 16.431 19.0059 16 20.0909 16H35.9091C36.9941 16 38.0346 16.431 38.8018 17.1982C39.569 17.9654 40 19.0059 40 20.0909V35.9091C40 36.9941 39.569 38.0346 38.8018 38.8018C38.0346 39.569 36.9941 40 35.9091 40H20.0909C19.0059 40 17.9654 39.569 17.1982 38.8018C16.431 38.0346 16 36.9941 16 35.9091V20.0909ZM19.2727 26.3636C19.2727 27.087 19.5601 27.7806 20.0715 28.2921C20.583 28.8036 21.2767 29.0909 22 29.0909C22.7233 29.0909 23.417 28.8036 23.9285 28.2921C24.4399 27.7806 24.7273 27.087 24.7273 26.3636C24.7273 25.6403 24.4399 24.9466 23.9285 24.4352C23.417 23.9237 22.7233 23.6364 22 23.6364C21.2767 23.6364 20.583 23.9237 20.0715 24.4352C19.5601 24.9466 19.2727 25.6403 19.2727 26.3636ZM22 31.2727C21.2767 31.2727 20.583 31.5601 20.0715 32.0715C19.5601 32.583 19.2727 33.2767 19.2727 34C19.2727 34.7233 19.5601 35.417 20.0715 35.9285C20.583 36.4399 21.2767 36.7273 22 36.7273C22.7233 36.7273 23.417 36.4399 23.9285 35.9285C24.4399 35.417 24.7273 34.7233 24.7273 34C24.7273 33.2767 24.4399 32.583 23.9285 32.0715C23.417 31.5601 22.7233 31.2727 22 31.2727ZM26.9091 26.0909C26.9091 26.5425 27.2756 26.9091 27.7273 26.9091H35.9091C36.1261 26.9091 36.3342 26.8229 36.4876 26.6695C36.6411 26.516 36.7273 26.3079 36.7273 26.0909C36.7273 25.8739 36.6411 25.6658 36.4876 25.5124C36.3342 25.3589 36.1261 25.2727 35.9091 25.2727H27.7273C27.5103 25.2727 27.3022 25.3589 27.1487 25.5124C26.9953 25.6658 26.9091 25.8739 26.9091 26.0909ZM27.7273 32.9091C27.5103 32.9091 27.3022 32.9953 27.1487 33.1487C26.9953 33.3022 26.9091 33.5103 26.9091 33.7273C26.9091 33.9443 26.9953 34.1524 27.1487 34.3058C27.3022 34.4593 27.5103 34.5455 27.7273 34.5455H35.9091C36.1261 34.5455 36.3342 34.4593 36.4876 34.3058C36.6411 34.1524 36.7273 33.9443 36.7273 33.7273C36.7273 33.5103 36.6411 33.3022 36.4876 33.1487C36.3342 32.9953 36.1261 32.9091 35.9091 32.9091H27.7273ZM19.2727 20.0909C19.2727 20.5425 19.6393 20.9091 20.0909 20.9091H35.9091C36.1261 20.9091 36.3342 20.8229 36.4876 20.6695C36.6411 20.516 36.7273 20.3079 36.7273 20.0909C36.7273 19.8739 36.6411 19.6658 36.4876 19.5124C36.3342 19.3589 36.1261 19.2727 35.9091 19.2727H20.0909C19.8739 19.2727 19.6658 19.3589 19.5124 19.5124C19.3589 19.6658 19.2727 19.8739 19.2727 20.0909Z" fill="#0068FE"/>
</svg>
